<svg width="572" height="216" viewBox="0 0 572 216" fill="none" xmlns="http://www.w3.org/2000/svg">
<rect width="460" height="168" transform="translate(88 24)" fill="white"/>
<g clip-path="url(#clip0_170660_158012)">
<path d="M40.6836 155.927V157H33.1504V155.927H40.6836ZM33.3623 155.927V159.448H32.0566L32.0498 155.927H33.3623ZM41.832 155.927L41.8184 159.441H40.5127V155.927H41.832ZM39.3916 147.047V148.127H35.0303V147.047H39.3916ZM40.5264 147.047V157H39.2139V147.047H40.5264ZM34.5791 147.047H35.8984L35.6934 151.053C35.666 151.655 35.609 152.211 35.5225 152.721C35.4359 153.227 35.3288 153.69 35.2012 154.109C35.0736 154.528 34.9277 154.904 34.7637 155.237C34.5996 155.565 34.4242 155.85 34.2373 156.091C34.0505 156.328 33.8545 156.524 33.6494 156.679C33.4489 156.83 33.2461 156.937 33.041 157H32.4395V155.927H32.8633C32.9818 155.8 33.1162 155.615 33.2666 155.374C33.4215 155.132 33.5742 154.82 33.7246 154.437C33.8796 154.05 34.014 153.578 34.1279 153.022C34.2464 152.466 34.3262 151.81 34.3672 151.053L34.5791 147.047ZM47.5537 155.736V151.928C47.5537 151.637 47.4945 151.384 47.376 151.169C47.262 150.951 47.0889 150.782 46.8564 150.664C46.624 150.545 46.3369 150.486 45.9951 150.486C45.6761 150.486 45.3958 150.541 45.1543 150.65C44.9173 150.759 44.7305 150.903 44.5938 151.081C44.4616 151.258 44.3955 151.45 44.3955 151.655H43.1309C43.1309 151.39 43.1992 151.128 43.3359 150.869C43.4727 150.609 43.6686 150.374 43.9238 150.165C44.1836 149.95 44.4935 149.782 44.8535 149.659C45.2181 149.531 45.6237 149.467 46.0703 149.467C46.6081 149.467 47.082 149.558 47.4922 149.741C47.9069 149.923 48.2305 150.199 48.4629 150.568C48.6999 150.932 48.8184 151.39 48.8184 151.942V155.387C48.8184 155.633 48.8389 155.895 48.8799 156.173C48.9255 156.451 48.9915 156.691 49.0781 156.891V157H47.7588C47.695 156.855 47.6449 156.661 47.6084 156.419C47.5719 156.173 47.5537 155.945 47.5537 155.736ZM47.7725 152.516L47.7861 153.405H46.5078C46.1478 153.405 45.8265 153.434 45.5439 153.494C45.2614 153.548 45.0244 153.633 44.833 153.747C44.6416 153.861 44.4958 154.004 44.3955 154.177C44.2952 154.346 44.2451 154.544 44.2451 154.772C44.2451 155.004 44.2975 155.216 44.4023 155.408C44.5072 155.599 44.6644 155.752 44.874 155.866C45.0882 155.975 45.3503 156.03 45.6602 156.03C46.0475 156.03 46.3893 155.948 46.6855 155.784C46.9818 155.62 47.2165 155.419 47.3896 155.182C47.5674 154.945 47.6631 154.715 47.6768 154.492L48.2168 155.1C48.1849 155.292 48.0983 155.503 47.957 155.736C47.8158 155.968 47.6266 156.192 47.3896 156.406C47.1572 156.615 46.8792 156.791 46.5557 156.932C46.2367 157.069 45.8766 157.137 45.4756 157.137C44.9743 157.137 44.5345 157.039 44.1562 156.843C43.7826 156.647 43.4909 156.385 43.2812 156.057C43.0762 155.724 42.9736 155.353 42.9736 154.943C42.9736 154.546 43.0511 154.198 43.2061 153.897C43.361 153.592 43.5843 153.339 43.876 153.138C44.1676 152.933 44.5186 152.778 44.9287 152.673C45.3389 152.569 45.7969 152.516 46.3027 152.516H47.7725ZM53.7129 149.604V157H52.4414V149.604H53.7129ZM56.1943 149.604V150.629H50.0078V149.604H56.1943ZM61.6904 155.736V151.928C61.6904 151.637 61.6312 151.384 61.5127 151.169C61.3988 150.951 61.2256 150.782 60.9932 150.664C60.7607 150.545 60.4736 150.486 60.1318 150.486C59.8128 150.486 59.5326 150.541 59.291 150.65C59.054 150.759 58.8672 150.903 58.7305 151.081C58.5983 151.258 58.5322 151.45 58.5322 151.655H57.2676C57.2676 151.39 57.3359 151.128 57.4727 150.869C57.6094 150.609 57.8053 150.374 58.0605 150.165C58.3203 149.95 58.6302 149.782 58.9902 149.659C59.3548 149.531 59.7604 149.467 60.207 149.467C60.7448 149.467 61.2188 149.558 61.6289 149.741C62.0436 149.923 62.3672 150.199 62.5996 150.568C62.8366 150.932 62.9551 151.39 62.9551 151.942V155.387C62.9551 155.633 62.9756 155.895 63.0166 156.173C63.0622 156.451 63.1283 156.691 63.2148 156.891V157H61.8955C61.8317 156.855 61.7816 156.661 61.7451 156.419C61.7087 156.173 61.6904 155.945 61.6904 155.736ZM61.9092 152.516L61.9229 153.405H60.6445C60.2845 153.405 59.9632 153.434 59.6807 153.494C59.3981 153.548 59.1611 153.633 58.9697 153.747C58.7783 153.861 58.6325 154.004 58.5322 154.177C58.432 154.346 58.3818 154.544 58.3818 154.772C58.3818 155.004 58.4342 155.216 58.5391 155.408C58.6439 155.599 58.8011 155.752 59.0107 155.866C59.2249 155.975 59.487 156.03 59.7969 156.03C60.1842 156.03 60.526 155.948 60.8223 155.784C61.1185 155.62 61.3532 155.419 61.5264 155.182C61.7041 154.945 61.7998 154.715 61.8135 154.492L62.3535 155.1C62.3216 155.292 62.235 155.503 62.0938 155.736C61.9525 155.968 61.7633 156.192 61.5264 156.406C61.2939 156.615 61.016 156.791 60.6924 156.932C60.3734 157.069 60.0133 157.137 59.6123 157.137C59.111 157.137 58.6712 157.039 58.293 156.843C57.9193 156.647 57.6276 156.385 57.418 156.057C57.2129 155.724 57.1104 155.353 57.1104 154.943C57.1104 154.546 57.1878 154.198 57.3428 153.897C57.4977 153.592 57.721 153.339 58.0127 153.138C58.3044 152.933 58.6553 152.778 59.0654 152.673C59.4756 152.569 59.9336 152.516 60.4395 152.516H61.9092ZM68.082 153.384V153.227C68.082 152.694 68.1595 152.199 68.3145 151.744C68.4694 151.283 68.6927 150.885 68.9844 150.547C69.276 150.206 69.6292 149.941 70.0439 149.754C70.4587 149.563 70.9235 149.467 71.4385 149.467C71.958 149.467 72.4251 149.563 72.8398 149.754C73.2591 149.941 73.6146 150.206 73.9062 150.547C74.2025 150.885 74.4281 151.283 74.583 151.744C74.738 152.199 74.8154 152.694 74.8154 153.227V153.384C74.8154 153.917 74.738 154.412 74.583 154.868C74.4281 155.323 74.2025 155.722 73.9062 156.064C73.6146 156.401 73.2614 156.666 72.8467 156.857C72.4365 157.044 71.9717 157.137 71.4521 157.137C70.9326 157.137 70.4655 157.044 70.0508 156.857C69.6361 156.666 69.2806 156.401 68.9844 156.064C68.6927 155.722 68.4694 155.323 68.3145 154.868C68.1595 154.412 68.082 153.917 68.082 153.384ZM69.3467 153.227V153.384C69.3467 153.753 69.39 154.102 69.4766 154.43C69.5632 154.754 69.693 155.041 69.8662 155.292C70.0439 155.542 70.265 155.74 70.5293 155.886C70.7936 156.028 71.1012 156.098 71.4521 156.098C71.7985 156.098 72.1016 156.028 72.3613 155.886C72.6257 155.74 72.8444 155.542 73.0176 155.292C73.1908 155.041 73.3206 154.754 73.4072 154.43C73.4984 154.102 73.5439 153.753 73.5439 153.384V153.227C73.5439 152.862 73.4984 152.518 73.4072 152.195C73.3206 151.867 73.1885 151.577 73.0107 151.327C72.8376 151.071 72.6188 150.871 72.3545 150.725C72.0947 150.579 71.7894 150.506 71.4385 150.506C71.0921 150.506 70.7868 150.579 70.5225 150.725C70.2627 150.871 70.0439 151.071 69.8662 151.327C69.693 151.577 69.5632 151.867 69.4766 152.195C69.39 152.518 69.3467 152.862 69.3467 153.227ZM77.7754 149.604V157H76.5107V149.604H77.7754ZM82.6289 149.604L79.1221 153.842H77.3516L77.1602 152.735H78.6094L81.0908 149.604H82.6289ZM81.2686 157L78.5479 153.651L79.3613 152.735L82.875 157H81.2686ZM83.4902 153.384V153.227C83.4902 152.694 83.5677 152.199 83.7227 151.744C83.8776 151.283 84.1009 150.885 84.3926 150.547C84.6842 150.206 85.0374 149.941 85.4521 149.754C85.8669 149.563 86.3317 149.467 86.8467 149.467C87.3662 149.467 87.8333 149.563 88.248 149.754C88.6673 149.941 89.0228 150.206 89.3145 150.547C89.6107 150.885 89.8363 151.283 89.9912 151.744C90.1462 152.199 90.2236 152.694 90.2236 153.227V153.384C90.2236 153.917 90.1462 154.412 89.9912 154.868C89.8363 155.323 89.6107 155.722 89.3145 156.064C89.0228 156.401 88.6696 156.666 88.2549 156.857C87.8447 157.044 87.3799 157.137 86.8604 157.137C86.3408 157.137 85.8737 157.044 85.459 156.857C85.0443 156.666 84.6888 156.401 84.3926 156.064C84.1009 155.722 83.8776 155.323 83.7227 154.868C83.5677 154.412 83.4902 153.917 83.4902 153.384ZM84.7549 153.227V153.384C84.7549 153.753 84.7982 154.102 84.8848 154.43C84.9714 154.754 85.1012 155.041 85.2744 155.292C85.4521 155.542 85.6732 155.74 85.9375 155.886C86.2018 156.028 86.5094 156.098 86.8604 156.098C87.2067 156.098 87.5098 156.028 87.7695 155.886C88.0339 155.74 88.2526 155.542 88.4258 155.292C88.599 155.041 88.7288 154.754 88.8154 154.43C88.9066 154.102 88.9521 153.753 88.9521 153.384V153.227C88.9521 152.862 88.9066 152.518 88.8154 152.195C88.7288 151.867 88.5967 151.577 88.4189 151.327C88.2458 151.071 88.027 150.871 87.7627 150.725C87.5029 150.579 87.1976 150.506 86.8467 150.506C86.5003 150.506 86.195 150.579 85.9307 150.725C85.6709 150.871 85.4521 151.071 85.2744 151.327C85.1012 151.577 84.9714 151.867 84.8848 152.195C84.7982 152.518 84.7549 152.862 84.7549 153.227ZM96.8271 152.81V153.835H92.917V152.81H96.8271ZM93.1836 149.604V157H91.9189V149.604H93.1836ZM97.8525 149.604V157H96.5811V149.604H97.8525ZM105.468 149.604V157H104.203V149.604H105.468ZM105.037 153.001V154.041C104.782 154.136 104.522 154.223 104.258 154.3C103.998 154.373 103.722 154.432 103.431 154.478C103.144 154.519 102.831 154.54 102.494 154.54C101.911 154.54 101.405 154.439 100.977 154.239C100.548 154.034 100.218 153.726 99.9854 153.316C99.7529 152.901 99.6367 152.379 99.6367 151.75V149.59H100.901V151.75C100.901 152.161 100.963 152.493 101.086 152.749C101.209 153.004 101.389 153.193 101.626 153.316C101.863 153.434 102.152 153.494 102.494 153.494C102.822 153.494 103.13 153.473 103.417 153.432C103.709 153.387 103.987 153.327 104.251 153.254C104.52 153.181 104.782 153.097 105.037 153.001ZM111.866 155.736V151.928C111.866 151.637 111.807 151.384 111.688 151.169C111.575 150.951 111.401 150.782 111.169 150.664C110.937 150.545 110.649 150.486 110.308 150.486C109.989 150.486 109.708 150.541 109.467 150.65C109.23 150.759 109.043 150.903 108.906 151.081C108.774 151.258 108.708 151.45 108.708 151.655H107.443C107.443 151.39 107.512 151.128 107.648 150.869C107.785 150.609 107.981 150.374 108.236 150.165C108.496 149.95 108.806 149.782 109.166 149.659C109.531 149.531 109.936 149.467 110.383 149.467C110.921 149.467 111.395 149.558 111.805 149.741C112.219 149.923 112.543 150.199 112.775 150.568C113.012 150.932 113.131 151.39 113.131 151.942V155.387C113.131 155.633 113.151 155.895 113.192 156.173C113.238 156.451 113.304 156.691 113.391 156.891V157H112.071C112.007 156.855 111.957 156.661 111.921 156.419C111.884 156.173 111.866 155.945 111.866 155.736ZM112.085 152.516L112.099 153.405H110.82C110.46 153.405 110.139 153.434 109.856 153.494C109.574 153.548 109.337 153.633 109.146 153.747C108.954 153.861 108.808 154.004 108.708 154.177C108.608 154.346 108.558 154.544 108.558 154.772C108.558 155.004 108.61 155.216 108.715 155.408C108.82 155.599 108.977 155.752 109.187 155.866C109.401 155.975 109.663 156.03 109.973 156.03C110.36 156.03 110.702 155.948 110.998 155.784C111.294 155.62 111.529 155.419 111.702 155.182C111.88 154.945 111.976 154.715 111.989 154.492L112.529 155.1C112.497 155.292 112.411 155.503 112.27 155.736C112.128 155.968 111.939 156.192 111.702 156.406C111.47 156.615 111.192 156.791 110.868 156.932C110.549 157.069 110.189 157.137 109.788 157.137C109.287 157.137 108.847 157.039 108.469 156.843C108.095 156.647 107.803 156.385 107.594 156.057C107.389 155.724 107.286 155.353 107.286 154.943C107.286 154.546 107.364 154.198 107.519 153.897C107.674 153.592 107.897 153.339 108.188 153.138C108.48 152.933 108.831 152.778 109.241 152.673C109.651 152.569 110.109 152.516 110.615 152.516H112.085ZM120.138 152.81V153.835H116.228V152.81H120.138ZM116.494 149.604V157H115.229V149.604H116.494ZM121.163 149.604V157H119.892V149.604H121.163ZM124.567 154.998L127.979 149.604H129.25V157H127.979V151.607L124.567 157H123.31V149.604H124.567V154.998ZM132.777 153.473H134.145L132.005 157H130.638L132.777 153.473ZM133.837 149.604H136.927V157H135.662V150.629H133.837C133.477 150.629 133.183 150.691 132.955 150.814C132.727 150.932 132.561 151.087 132.456 151.279C132.351 151.47 132.299 151.668 132.299 151.874C132.299 152.074 132.347 152.268 132.442 152.455C132.538 152.637 132.688 152.787 132.894 152.906C133.099 153.024 133.363 153.083 133.687 153.083H136.004V154.123H133.687C133.263 154.123 132.887 154.066 132.559 153.952C132.23 153.838 131.952 153.681 131.725 153.48C131.497 153.275 131.324 153.036 131.205 152.762C131.087 152.484 131.027 152.183 131.027 151.86C131.027 151.536 131.089 151.238 131.212 150.964C131.34 150.691 131.522 150.452 131.759 150.247C132 150.042 132.294 149.884 132.641 149.775C132.992 149.661 133.39 149.604 133.837 149.604Z" fill="black" fill-opacity="0.85"/>
<path d="M141.519 156.331C141.519 156.116 141.585 155.936 141.717 155.791C141.854 155.64 142.049 155.565 142.305 155.565C142.56 155.565 142.754 155.64 142.886 155.791C143.022 155.936 143.091 156.116 143.091 156.331C143.091 156.54 143.022 156.718 142.886 156.864C142.754 157.01 142.56 157.083 142.305 157.083C142.049 157.083 141.854 157.01 141.717 156.864C141.585 156.718 141.519 156.54 141.519 156.331ZM141.525 150.294C141.525 150.08 141.591 149.9 141.724 149.754C141.86 149.604 142.056 149.529 142.312 149.529C142.567 149.529 142.76 149.604 142.893 149.754C143.029 149.9 143.098 150.08 143.098 150.294C143.098 150.504 143.029 150.682 142.893 150.828C142.76 150.973 142.567 151.046 142.312 151.046C142.056 151.046 141.86 150.973 141.724 150.828C141.591 150.682 141.525 150.504 141.525 150.294Z" fill="black" fill-opacity="0.85"/>
</g>
<rect x="152.5" y="136.5" width="395" height="31" rx="1.5" fill="white"/>
<path opacity="0.4" d="M170.46 154.484C170.46 154.252 170.424 154.047 170.351 153.869C170.282 153.687 170.159 153.523 169.981 153.377C169.808 153.231 169.567 153.092 169.257 152.96C168.951 152.828 168.564 152.693 168.095 152.557C167.603 152.411 167.158 152.249 166.762 152.071C166.365 151.889 166.026 151.682 165.743 151.449C165.461 151.217 165.244 150.95 165.094 150.649C164.943 150.349 164.868 150.005 164.868 149.617C164.868 149.23 164.948 148.872 165.107 148.544C165.267 148.216 165.495 147.931 165.791 147.689C166.092 147.443 166.45 147.252 166.864 147.115C167.279 146.979 167.742 146.91 168.252 146.91C168.999 146.91 169.633 147.054 170.152 147.341C170.676 147.623 171.075 147.995 171.349 148.455C171.622 148.911 171.759 149.398 171.759 149.918H170.446C170.446 149.544 170.367 149.214 170.207 148.927C170.048 148.635 169.806 148.407 169.482 148.243C169.159 148.075 168.749 147.99 168.252 147.99C167.783 147.99 167.395 148.061 167.09 148.202C166.785 148.343 166.557 148.535 166.406 148.776C166.26 149.018 166.188 149.294 166.188 149.604C166.188 149.813 166.231 150.005 166.317 150.178C166.409 150.346 166.548 150.504 166.734 150.649C166.926 150.795 167.167 150.93 167.459 151.053C167.755 151.176 168.108 151.294 168.519 151.408C169.084 151.568 169.571 151.745 169.981 151.941C170.392 152.137 170.729 152.358 170.993 152.604C171.262 152.846 171.46 153.122 171.588 153.432C171.72 153.737 171.786 154.083 171.786 154.471C171.786 154.876 171.704 155.243 171.54 155.571C171.376 155.899 171.141 156.18 170.836 156.412C170.531 156.645 170.164 156.825 169.735 156.952C169.312 157.075 168.838 157.137 168.313 157.137C167.853 157.137 167.4 157.073 166.953 156.945C166.511 156.818 166.108 156.626 165.743 156.371C165.383 156.116 165.094 155.801 164.875 155.428C164.661 155.049 164.554 154.612 164.554 154.115H165.866C165.866 154.457 165.932 154.751 166.064 154.997C166.197 155.239 166.377 155.439 166.604 155.599C166.837 155.758 167.099 155.877 167.391 155.954C167.687 156.027 167.994 156.063 168.313 156.063C168.774 156.063 169.163 156 169.482 155.872C169.801 155.744 170.043 155.562 170.207 155.325C170.376 155.088 170.46 154.808 170.46 154.484ZM176.346 157.137C175.831 157.137 175.364 157.05 174.944 156.877C174.53 156.699 174.172 156.451 173.871 156.132C173.575 155.813 173.347 155.435 173.188 154.997C173.028 154.56 172.948 154.081 172.948 153.562V153.274C172.948 152.673 173.037 152.137 173.215 151.668C173.393 151.194 173.634 150.793 173.939 150.465C174.245 150.137 174.591 149.888 174.979 149.72C175.366 149.551 175.767 149.467 176.182 149.467C176.71 149.467 177.166 149.558 177.549 149.74C177.936 149.923 178.253 150.178 178.499 150.506C178.745 150.829 178.927 151.212 179.046 151.654C179.164 152.092 179.224 152.57 179.224 153.09V153.657H173.7V152.625H177.959V152.529C177.941 152.201 177.872 151.882 177.754 151.572C177.64 151.262 177.458 151.007 177.207 150.807C176.956 150.606 176.615 150.506 176.182 150.506C175.895 150.506 175.63 150.567 175.389 150.69C175.147 150.809 174.94 150.987 174.767 151.224C174.593 151.461 174.459 151.75 174.363 152.092C174.268 152.434 174.22 152.828 174.22 153.274V153.562C174.22 153.912 174.268 154.243 174.363 154.553C174.464 154.858 174.607 155.127 174.794 155.359C174.985 155.592 175.215 155.774 175.484 155.906C175.758 156.038 176.068 156.104 176.414 156.104C176.861 156.104 177.239 156.013 177.549 155.831C177.859 155.649 178.13 155.405 178.362 155.1L179.128 155.708C178.968 155.95 178.766 156.18 178.52 156.398C178.273 156.617 177.97 156.795 177.61 156.932C177.255 157.068 176.833 157.137 176.346 157.137ZM182.074 146.5V157H180.803V146.5H182.074ZM187.174 157.137C186.659 157.137 186.192 157.05 185.772 156.877C185.358 156.699 185 156.451 184.699 156.132C184.403 155.813 184.175 155.435 184.016 154.997C183.856 154.56 183.776 154.081 183.776 153.562V153.274C183.776 152.673 183.865 152.137 184.043 151.668C184.221 151.194 184.462 150.793 184.768 150.465C185.073 150.137 185.419 149.888 185.807 149.72C186.194 149.551 186.595 149.467 187.01 149.467C187.538 149.467 187.994 149.558 188.377 149.74C188.764 149.923 189.081 150.178 189.327 150.506C189.573 150.829 189.756 151.212 189.874 151.654C189.993 152.092 190.052 152.57 190.052 153.09V153.657H184.528V152.625H188.787V152.529C188.769 152.201 188.701 151.882 188.582 151.572C188.468 151.262 188.286 151.007 188.035 150.807C187.785 150.606 187.443 150.506 187.01 150.506C186.723 150.506 186.458 150.567 186.217 150.69C185.975 150.809 185.768 150.987 185.595 151.224C185.422 151.461 185.287 151.75 185.191 152.092C185.096 152.434 185.048 152.828 185.048 153.274V153.562C185.048 153.912 185.096 154.243 185.191 154.553C185.292 154.858 185.435 155.127 185.622 155.359C185.813 155.592 186.044 155.774 186.312 155.906C186.586 156.038 186.896 156.104 187.242 156.104C187.689 156.104 188.067 156.013 188.377 155.831C188.687 155.649 188.958 155.405 189.19 155.1L189.956 155.708C189.797 155.95 189.594 156.18 189.348 156.398C189.102 156.617 188.799 156.795 188.438 156.932C188.083 157.068 187.661 157.137 187.174 157.137ZM194.488 156.098C194.789 156.098 195.067 156.036 195.322 155.913C195.577 155.79 195.787 155.621 195.951 155.407C196.115 155.188 196.209 154.94 196.231 154.662H197.435C197.412 155.1 197.264 155.507 196.99 155.886C196.721 156.259 196.368 156.562 195.931 156.795C195.493 157.023 195.012 157.137 194.488 157.137C193.932 157.137 193.447 157.039 193.032 156.843C192.622 156.647 192.28 156.378 192.007 156.036C191.738 155.694 191.535 155.302 191.398 154.86C191.266 154.414 191.2 153.942 191.2 153.445V153.158C191.2 152.661 191.266 152.192 191.398 151.75C191.535 151.303 191.738 150.909 192.007 150.567C192.28 150.226 192.622 149.957 193.032 149.761C193.447 149.565 193.932 149.467 194.488 149.467C195.067 149.467 195.573 149.585 196.006 149.822C196.439 150.055 196.778 150.374 197.024 150.779C197.275 151.18 197.412 151.636 197.435 152.146H196.231C196.209 151.841 196.122 151.565 195.972 151.319C195.826 151.073 195.625 150.877 195.37 150.731C195.119 150.581 194.826 150.506 194.488 150.506C194.101 150.506 193.775 150.583 193.511 150.738C193.251 150.889 193.044 151.094 192.889 151.354C192.738 151.609 192.629 151.894 192.561 152.208C192.497 152.518 192.465 152.835 192.465 153.158V153.445C192.465 153.769 192.497 154.088 192.561 154.402C192.624 154.717 192.731 155.002 192.882 155.257C193.037 155.512 193.244 155.717 193.504 155.872C193.768 156.022 194.096 156.098 194.488 156.098ZM201.953 149.604V150.574H197.954V149.604H201.953ZM199.308 147.806H200.572V155.168C200.572 155.419 200.611 155.608 200.688 155.735C200.766 155.863 200.866 155.947 200.989 155.988C201.112 156.029 201.244 156.05 201.386 156.05C201.491 156.05 201.6 156.041 201.714 156.022C201.832 156 201.921 155.981 201.98 155.968L201.987 157C201.887 157.032 201.755 157.062 201.591 157.089C201.431 157.121 201.238 157.137 201.01 157.137C200.7 157.137 200.415 157.075 200.155 156.952C199.896 156.829 199.688 156.624 199.533 156.337C199.383 156.045 199.308 155.653 199.308 155.161V147.806ZM211.571 155.564V146.5H212.843V157H211.681L211.571 155.564ZM206.595 153.384V153.24C206.595 152.675 206.663 152.162 206.8 151.702C206.941 151.237 207.139 150.839 207.395 150.506C207.654 150.173 207.962 149.918 208.317 149.74C208.677 149.558 209.078 149.467 209.521 149.467C209.985 149.467 210.391 149.549 210.737 149.713C211.088 149.872 211.384 150.107 211.626 150.417C211.872 150.722 212.066 151.091 212.207 151.524C212.348 151.957 212.446 152.447 212.501 152.994V153.623C212.451 154.165 212.353 154.653 212.207 155.086C212.066 155.519 211.872 155.888 211.626 156.193C211.384 156.499 211.088 156.733 210.737 156.897C210.386 157.057 209.976 157.137 209.507 157.137C209.074 157.137 208.677 157.043 208.317 156.856C207.962 156.67 207.654 156.408 207.395 156.07C207.139 155.733 206.941 155.337 206.8 154.881C206.663 154.421 206.595 153.922 206.595 153.384ZM207.866 153.24V153.384C207.866 153.753 207.903 154.099 207.976 154.423C208.053 154.746 208.172 155.031 208.331 155.277C208.491 155.523 208.693 155.717 208.939 155.858C209.186 155.995 209.479 156.063 209.821 156.063C210.241 156.063 210.585 155.975 210.854 155.797C211.127 155.619 211.346 155.384 211.51 155.093C211.674 154.801 211.801 154.484 211.893 154.143V152.495C211.838 152.244 211.758 152.003 211.653 151.771C211.553 151.534 211.421 151.324 211.257 151.142C211.097 150.955 210.899 150.807 210.662 150.697C210.43 150.588 210.154 150.533 209.835 150.533C209.489 150.533 209.19 150.606 208.939 150.752C208.693 150.893 208.491 151.089 208.331 151.34C208.172 151.586 208.053 151.873 207.976 152.201C207.903 152.525 207.866 152.871 207.866 153.24ZM219.173 155.735V151.928C219.173 151.636 219.114 151.383 218.995 151.169C218.881 150.95 218.708 150.782 218.476 150.663C218.243 150.545 217.956 150.485 217.614 150.485C217.295 150.485 217.015 150.54 216.773 150.649C216.536 150.759 216.35 150.902 216.213 151.08C216.081 151.258 216.015 151.449 216.015 151.654H214.75C214.75 151.39 214.818 151.128 214.955 150.868C215.092 150.608 215.288 150.374 215.543 150.164C215.803 149.95 216.113 149.781 216.473 149.658C216.837 149.531 217.243 149.467 217.689 149.467C218.227 149.467 218.701 149.558 219.111 149.74C219.526 149.923 219.85 150.198 220.082 150.567C220.319 150.932 220.438 151.39 220.438 151.941V155.387C220.438 155.633 220.458 155.895 220.499 156.173C220.545 156.451 220.611 156.69 220.697 156.891V157H219.378C219.314 156.854 219.264 156.66 219.228 156.419C219.191 156.173 219.173 155.945 219.173 155.735ZM219.392 152.516L219.405 153.404H218.127C217.767 153.404 217.446 153.434 217.163 153.493C216.881 153.548 216.644 153.632 216.452 153.746C216.261 153.86 216.115 154.004 216.015 154.177C215.914 154.345 215.864 154.544 215.864 154.771C215.864 155.004 215.917 155.216 216.021 155.407C216.126 155.599 216.284 155.751 216.493 155.865C216.707 155.975 216.969 156.029 217.279 156.029C217.667 156.029 218.008 155.947 218.305 155.783C218.601 155.619 218.836 155.419 219.009 155.182C219.187 154.945 219.282 154.715 219.296 154.491L219.836 155.1C219.804 155.291 219.717 155.503 219.576 155.735C219.435 155.968 219.246 156.191 219.009 156.405C218.776 156.615 218.498 156.79 218.175 156.932C217.856 157.068 217.496 157.137 217.095 157.137C216.593 157.137 216.154 157.039 215.775 156.843C215.402 156.647 215.11 156.385 214.9 156.057C214.695 155.724 214.593 155.353 214.593 154.942C214.593 154.546 214.67 154.197 214.825 153.896C214.98 153.591 215.203 153.338 215.495 153.138C215.787 152.933 216.138 152.778 216.548 152.673C216.958 152.568 217.416 152.516 217.922 152.516H219.392ZM225.523 149.604V150.574H221.524V149.604H225.523ZM222.878 147.806H224.143V155.168C224.143 155.419 224.181 155.608 224.259 155.735C224.336 155.863 224.437 155.947 224.56 155.988C224.683 156.029 224.815 156.05 224.956 156.05C225.061 156.05 225.17 156.041 225.284 156.022C225.403 156 225.492 155.981 225.551 155.968L225.558 157C225.457 157.032 225.325 157.062 225.161 157.089C225.002 157.121 224.808 157.137 224.58 157.137C224.27 157.137 223.985 157.075 223.726 156.952C223.466 156.829 223.258 156.624 223.104 156.337C222.953 156.045 222.878 155.653 222.878 155.161V147.806ZM230.076 157.137C229.561 157.137 229.094 157.05 228.675 156.877C228.26 156.699 227.902 156.451 227.602 156.132C227.305 155.813 227.077 155.435 226.918 154.997C226.758 154.56 226.679 154.081 226.679 153.562V153.274C226.679 152.673 226.768 152.137 226.945 151.668C227.123 151.194 227.365 150.793 227.67 150.465C227.975 150.137 228.322 149.888 228.709 149.72C229.096 149.551 229.497 149.467 229.912 149.467C230.441 149.467 230.896 149.558 231.279 149.74C231.667 149.923 231.983 150.178 232.229 150.506C232.476 150.829 232.658 151.212 232.776 151.654C232.895 152.092 232.954 152.57 232.954 153.09V153.657H227.431V152.625H231.689V152.529C231.671 152.201 231.603 151.882 231.484 151.572C231.37 151.262 231.188 151.007 230.938 150.807C230.687 150.606 230.345 150.506 229.912 150.506C229.625 150.506 229.361 150.567 229.119 150.69C228.878 150.809 228.67 150.987 228.497 151.224C228.324 151.461 228.189 151.75 228.094 152.092C227.998 152.434 227.95 152.828 227.95 153.274V153.562C227.95 153.912 227.998 154.243 228.094 154.553C228.194 154.858 228.338 155.127 228.524 155.359C228.716 155.592 228.946 155.774 229.215 155.906C229.488 156.038 229.798 156.104 230.145 156.104C230.591 156.104 230.969 156.013 231.279 155.831C231.589 155.649 231.86 155.405 232.093 155.1L232.858 155.708C232.699 155.95 232.496 156.18 232.25 156.398C232.004 156.617 231.701 156.795 231.341 156.932C230.985 157.068 230.564 157.137 230.076 157.137Z" fill="black" fill-opacity="0.85"/>
<path d="M535.5 146.875H532.875V145.875C532.875 145.806 532.819 145.75 532.75 145.75H531.875C531.806 145.75 531.75 145.806 531.75 145.875V146.875H527.75V145.875C527.75 145.806 527.694 145.75 527.625 145.75H526.75C526.681 145.75 526.625 145.806 526.625 145.875V146.875H524C523.723 146.875 523.5 147.098 523.5 147.375V157.75C523.5 158.027 523.723 158.25 524 158.25H535.5C535.777 158.25 536 158.027 536 157.75V147.375C536 147.098 535.777 146.875 535.5 146.875ZM534.875 157.125H524.625V151.188H534.875V157.125ZM524.625 150.125V148H526.625V148.75C526.625 148.819 526.681 148.875 526.75 148.875H527.625C527.694 148.875 527.75 148.819 527.75 148.75V148H531.75V148.75C531.75 148.819 531.806 148.875 531.875 148.875H532.75C532.819 148.875 532.875 148.819 532.875 148.75V148H534.875V150.125H524.625Z" fill="black" fill-opacity="0.25"/>
<rect x="152.5" y="136.5" width="395" height="31" rx="1.5" stroke="#D9D9D9"/>
<g clip-path="url(#clip1_170660_158012)">
<g clip-path="url(#clip2_170660_158012)">
<path d="M101.018 96.835H102.33C102.262 97.4639 102.082 98.0267 101.79 98.5234C101.498 99.0202 101.086 99.4144 100.553 99.7061C100.02 99.9932 99.3542 100.137 98.5566 100.137C97.9733 100.137 97.4424 100.027 96.9639 99.8086C96.4899 99.5898 96.082 99.2799 95.7402 98.8789C95.3984 98.4733 95.1341 97.988 94.9473 97.4229C94.765 96.8532 94.6738 96.2197 94.6738 95.5225V94.5312C94.6738 93.834 94.765 93.2028 94.9473 92.6377C95.1341 92.068 95.4007 91.5804 95.7471 91.1748C96.098 90.7692 96.5195 90.457 97.0117 90.2383C97.5039 90.0195 98.0576 89.9102 98.6729 89.9102C99.4248 89.9102 100.061 90.0514 100.58 90.334C101.1 90.6165 101.503 91.0085 101.79 91.5098C102.082 92.0065 102.262 92.583 102.33 93.2393H101.018C100.954 92.7744 100.835 92.3757 100.662 92.043C100.489 91.7057 100.243 91.446 99.9238 91.2637C99.6048 91.0814 99.1878 90.9902 98.6729 90.9902C98.2308 90.9902 97.8411 91.0745 97.5039 91.2432C97.1712 91.4118 96.891 91.651 96.6631 91.9609C96.4398 92.2708 96.2712 92.6423 96.1572 93.0752C96.0433 93.5081 95.9863 93.9889 95.9863 94.5176V95.5225C95.9863 96.0101 96.0365 96.4681 96.1367 96.8965C96.2415 97.3249 96.3988 97.7008 96.6084 98.0244C96.818 98.348 97.0846 98.6032 97.4082 98.79C97.7318 98.9723 98.1146 99.0635 98.5566 99.0635C99.1172 99.0635 99.5638 98.9746 99.8965 98.7969C100.229 98.6191 100.48 98.3639 100.648 98.0312C100.822 97.6986 100.945 97.2998 101.018 96.835ZM106.015 99.2344L108.072 92.6035H109.426L106.459 101.142C106.391 101.324 106.299 101.52 106.186 101.729C106.076 101.944 105.935 102.146 105.762 102.338C105.589 102.529 105.379 102.684 105.133 102.803C104.891 102.926 104.602 102.987 104.265 102.987C104.164 102.987 104.037 102.974 103.882 102.946C103.727 102.919 103.618 102.896 103.554 102.878L103.547 101.853C103.583 101.857 103.64 101.862 103.718 101.866C103.8 101.875 103.857 101.88 103.889 101.88C104.176 101.88 104.42 101.841 104.62 101.764C104.821 101.691 104.989 101.565 105.126 101.388C105.267 101.215 105.388 100.975 105.488 100.67L106.015 99.2344ZM104.504 92.6035L106.425 98.3457L106.753 99.6787L105.844 100.144L103.123 92.6035H104.504ZM114.819 98.3184L117.335 92.6035H118.552L115.257 100H114.382L111.101 92.6035H112.317L114.819 98.3184ZM111.948 92.6035V100H110.684V92.6035H111.948ZM117.649 100V92.6035H118.921V100H117.649ZM125.21 98.3184L127.726 92.6035H128.942L125.647 100H124.772L121.491 92.6035H122.708L125.21 98.3184ZM122.339 92.6035V100H121.074V92.6035H122.339ZM128.04 100V92.6035H129.312V100H128.04ZM135.71 98.7354V94.9277C135.71 94.6361 135.651 94.3831 135.532 94.1689C135.418 93.9502 135.245 93.7816 135.013 93.6631C134.78 93.5446 134.493 93.4854 134.151 93.4854C133.832 93.4854 133.552 93.54 133.311 93.6494C133.074 93.7588 132.887 93.9023 132.75 94.0801C132.618 94.2578 132.552 94.4492 132.552 94.6543H131.287C131.287 94.39 131.355 94.1279 131.492 93.8682C131.629 93.6084 131.825 93.3737 132.08 93.1641C132.34 92.9499 132.65 92.7812 133.01 92.6582C133.374 92.5306 133.78 92.4668 134.227 92.4668C134.764 92.4668 135.238 92.5579 135.648 92.7402C136.063 92.9225 136.387 93.1982 136.619 93.5674C136.856 93.932 136.975 94.39 136.975 94.9414V98.3867C136.975 98.6328 136.995 98.8949 137.036 99.1729C137.082 99.4508 137.148 99.6901 137.234 99.8906V100H135.915C135.851 99.8542 135.801 99.6605 135.765 99.4189C135.728 99.1729 135.71 98.945 135.71 98.7354ZM135.929 95.5156L135.942 96.4043H134.664C134.304 96.4043 133.983 96.4339 133.7 96.4932C133.418 96.5479 133.181 96.6322 132.989 96.7461C132.798 96.86 132.652 97.0036 132.552 97.1768C132.451 97.3454 132.401 97.5436 132.401 97.7715C132.401 98.0039 132.454 98.2158 132.559 98.4072C132.663 98.5986 132.821 98.7513 133.03 98.8652C133.244 98.9746 133.507 99.0293 133.816 99.0293C134.204 99.0293 134.546 98.9473 134.842 98.7832C135.138 98.6191 135.373 98.4186 135.546 98.1816C135.724 97.9447 135.819 97.7145 135.833 97.4912L136.373 98.0996C136.341 98.291 136.255 98.5029 136.113 98.7354C135.972 98.9678 135.783 99.1911 135.546 99.4053C135.313 99.6149 135.035 99.7904 134.712 99.9316C134.393 100.068 134.033 100.137 133.632 100.137C133.131 100.137 132.691 100.039 132.312 99.8428C131.939 99.6468 131.647 99.3848 131.438 99.0566C131.232 98.724 131.13 98.3525 131.13 97.9424C131.13 97.5459 131.207 97.1973 131.362 96.8965C131.517 96.5911 131.741 96.3382 132.032 96.1377C132.324 95.9326 132.675 95.7777 133.085 95.6729C133.495 95.568 133.953 95.5156 134.459 95.5156H135.929Z" fill="black" fill-opacity="0.85"/>
<path d="M141.519 99.3301C141.519 99.1159 141.585 98.9359 141.717 98.79C141.854 98.6396 142.049 98.5645 142.305 98.5645C142.56 98.5645 142.754 98.6396 142.886 98.79C143.022 98.9359 143.091 99.1159 143.091 99.3301C143.091 99.5397 143.022 99.7174 142.886 99.8633C142.754 100.009 142.56 100.082 142.305 100.082C142.049 100.082 141.854 100.009 141.717 99.8633C141.585 99.7174 141.519 99.5397 141.519 99.3301ZM141.525 93.2939C141.525 93.0798 141.591 92.8997 141.724 92.7539C141.86 92.6035 142.056 92.5283 142.312 92.5283C142.567 92.5283 142.76 92.6035 142.893 92.7539C143.029 92.8997 143.098 93.0798 143.098 93.2939C143.098 93.5036 143.029 93.6813 142.893 93.8271C142.76 93.973 142.567 94.0459 142.312 94.0459C142.056 94.0459 141.86 93.973 141.724 93.8271C141.591 93.6813 141.525 93.5036 141.525 93.2939Z" fill="black" fill-opacity="0.85"/>
</g>
</g>
<rect x="152.5" y="80.5" width="89" height="31" rx="1.5" fill="white"/>
<path d="M166.673 95.4014H167.575C168.017 95.4014 168.382 95.3285 168.669 95.1826C168.961 95.0322 169.177 94.8294 169.318 94.5742C169.464 94.3145 169.537 94.0228 169.537 93.6992C169.537 93.3164 169.473 92.9951 169.346 92.7354C169.218 92.4756 169.027 92.2796 168.771 92.1475C168.516 92.0153 168.193 91.9492 167.801 91.9492C167.445 91.9492 167.131 92.0199 166.857 92.1611C166.589 92.2979 166.377 92.4938 166.222 92.749C166.071 93.0042 165.996 93.305 165.996 93.6514H164.731C164.731 93.1455 164.859 92.6852 165.114 92.2705C165.369 91.8558 165.727 91.5254 166.188 91.2793C166.652 91.0332 167.19 90.9102 167.801 90.9102C168.402 90.9102 168.929 91.0173 169.38 91.2314C169.831 91.4411 170.182 91.7555 170.433 92.1748C170.683 92.5895 170.809 93.1068 170.809 93.7266C170.809 93.9772 170.749 94.2461 170.631 94.5332C170.517 94.8158 170.337 95.0801 170.091 95.3262C169.849 95.5723 169.535 95.7751 169.147 95.9346C168.76 96.0895 168.295 96.167 167.753 96.167H166.673V95.4014ZM166.673 96.4404V95.6816H167.753C168.386 95.6816 168.91 95.7568 169.325 95.9072C169.74 96.0576 170.066 96.2581 170.303 96.5088C170.544 96.7594 170.713 97.0352 170.809 97.3359C170.909 97.6322 170.959 97.9284 170.959 98.2246C170.959 98.6895 170.879 99.1019 170.72 99.4619C170.565 99.8219 170.344 100.127 170.057 100.378C169.774 100.629 169.441 100.818 169.059 100.945C168.676 101.073 168.259 101.137 167.808 101.137C167.375 101.137 166.967 101.075 166.584 100.952C166.206 100.829 165.871 100.651 165.579 100.419C165.287 100.182 165.06 99.8926 164.896 99.5508C164.731 99.2044 164.649 98.8102 164.649 98.3682H165.914C165.914 98.7145 165.989 99.0176 166.14 99.2773C166.295 99.5371 166.513 99.7399 166.796 99.8857C167.083 100.027 167.42 100.098 167.808 100.098C168.195 100.098 168.528 100.032 168.806 99.8994C169.088 99.7627 169.305 99.5576 169.455 99.2842C169.61 99.0107 169.688 98.6667 169.688 98.252C169.688 97.8372 169.601 97.4977 169.428 97.2334C169.255 96.9645 169.008 96.7663 168.689 96.6387C168.375 96.5065 168.004 96.4404 167.575 96.4404H166.673ZM174.548 95.4014H175.45C175.892 95.4014 176.257 95.3285 176.544 95.1826C176.836 95.0322 177.052 94.8294 177.193 94.5742C177.339 94.3145 177.412 94.0228 177.412 93.6992C177.412 93.3164 177.348 92.9951 177.221 92.7354C177.093 92.4756 176.902 92.2796 176.646 92.1475C176.391 92.0153 176.068 91.9492 175.676 91.9492C175.32 91.9492 175.006 92.0199 174.732 92.1611C174.464 92.2979 174.252 92.4938 174.097 92.749C173.946 93.0042 173.871 93.305 173.871 93.6514H172.606C172.606 93.1455 172.734 92.6852 172.989 92.2705C173.244 91.8558 173.602 91.5254 174.062 91.2793C174.527 91.0332 175.065 90.9102 175.676 90.9102C176.277 90.9102 176.804 91.0173 177.255 91.2314C177.706 91.4411 178.057 91.7555 178.308 92.1748C178.558 92.5895 178.684 93.1068 178.684 93.7266C178.684 93.9772 178.624 94.2461 178.506 94.5332C178.392 94.8158 178.212 95.0801 177.966 95.3262C177.724 95.5723 177.41 95.7751 177.022 95.9346C176.635 96.0895 176.17 96.167 175.628 96.167H174.548V95.4014ZM174.548 96.4404V95.6816H175.628C176.261 95.6816 176.785 95.7568 177.2 95.9072C177.615 96.0576 177.941 96.2581 178.178 96.5088C178.419 96.7594 178.588 97.0352 178.684 97.3359C178.784 97.6322 178.834 97.9284 178.834 98.2246C178.834 98.6895 178.754 99.1019 178.595 99.4619C178.44 99.8219 178.219 100.127 177.932 100.378C177.649 100.629 177.316 100.818 176.934 100.945C176.551 101.073 176.134 101.137 175.683 101.137C175.25 101.137 174.842 101.075 174.459 100.952C174.081 100.829 173.746 100.651 173.454 100.419C173.162 100.182 172.935 99.8926 172.771 99.5508C172.606 99.2044 172.524 98.8102 172.524 98.3682H173.789C173.789 98.7145 173.864 99.0176 174.015 99.2773C174.17 99.5371 174.388 99.7399 174.671 99.8857C174.958 100.027 175.295 100.098 175.683 100.098C176.07 100.098 176.403 100.032 176.681 99.8994C176.963 99.7627 177.18 99.5576 177.33 99.2842C177.485 99.0107 177.562 98.6667 177.562 98.252C177.562 97.8372 177.476 97.4977 177.303 97.2334C177.13 96.9645 176.883 96.7663 176.564 96.6387C176.25 96.5065 175.879 96.4404 175.45 96.4404H174.548ZM182.423 95.4014H183.325C183.767 95.4014 184.132 95.3285 184.419 95.1826C184.711 95.0322 184.927 94.8294 185.068 94.5742C185.214 94.3145 185.287 94.0228 185.287 93.6992C185.287 93.3164 185.223 92.9951 185.096 92.7354C184.968 92.4756 184.777 92.2796 184.521 92.1475C184.266 92.0153 183.943 91.9492 183.551 91.9492C183.195 91.9492 182.881 92.0199 182.607 92.1611C182.339 92.2979 182.127 92.4938 181.972 92.749C181.821 93.0042 181.746 93.305 181.746 93.6514H180.481C180.481 93.1455 180.609 92.6852 180.864 92.2705C181.119 91.8558 181.477 91.5254 181.938 91.2793C182.402 91.0332 182.94 90.9102 183.551 90.9102C184.152 90.9102 184.679 91.0173 185.13 91.2314C185.581 91.4411 185.932 91.7555 186.183 92.1748C186.433 92.5895 186.559 93.1068 186.559 93.7266C186.559 93.9772 186.499 94.2461 186.381 94.5332C186.267 94.8158 186.087 95.0801 185.841 95.3262C185.599 95.5723 185.285 95.7751 184.897 95.9346C184.51 96.0895 184.045 96.167 183.503 96.167H182.423V95.4014ZM182.423 96.4404V95.6816H183.503C184.136 95.6816 184.66 95.7568 185.075 95.9072C185.49 96.0576 185.816 96.2581 186.053 96.5088C186.294 96.7594 186.463 97.0352 186.559 97.3359C186.659 97.6322 186.709 97.9284 186.709 98.2246C186.709 98.6895 186.629 99.1019 186.47 99.4619C186.315 99.8219 186.094 100.127 185.807 100.378C185.524 100.629 185.191 100.818 184.809 100.945C184.426 101.073 184.009 101.137 183.558 101.137C183.125 101.137 182.717 101.075 182.334 100.952C181.956 100.829 181.621 100.651 181.329 100.419C181.037 100.182 180.81 99.8926 180.646 99.5508C180.481 99.2044 180.399 98.8102 180.399 98.3682H181.664C181.664 98.7145 181.739 99.0176 181.89 99.2773C182.045 99.5371 182.263 99.7399 182.546 99.8857C182.833 100.027 183.17 100.098 183.558 100.098C183.945 100.098 184.278 100.032 184.556 99.8994C184.838 99.7627 185.055 99.5576 185.205 99.2842C185.36 99.0107 185.438 98.6667 185.438 98.252C185.438 97.8372 185.351 97.4977 185.178 97.2334C185.005 96.9645 184.758 96.7663 184.439 96.6387C184.125 96.5065 183.754 96.4404 183.325 96.4404H182.423Z" fill="black" fill-opacity="0.85"/>
<rect x="152.5" y="80.5" width="89" height="31" rx="1.5" stroke="#D9D9D9"/>
<g clip-path="url(#clip3_170660_158012)">
<path d="M79.1768 35.0469V45H77.8643V36.127H72.9561V45H71.6367V35.0469H79.1768ZM82.6426 39.0254V47.8438H81.3711V37.6035H82.5332L82.6426 39.0254ZM87.626 41.2402V41.3838C87.626 41.9215 87.5622 42.4206 87.4346 42.8809C87.307 43.3366 87.1201 43.7331 86.874 44.0703C86.6325 44.4076 86.334 44.6696 85.9785 44.8564C85.623 45.0433 85.2152 45.1367 84.7549 45.1367C84.2855 45.1367 83.8708 45.0592 83.5107 44.9043C83.1507 44.7493 82.8454 44.5238 82.5947 44.2275C82.3441 43.9313 82.1436 43.5758 81.9932 43.1611C81.8473 42.7464 81.7471 42.2793 81.6924 41.7598V40.9941C81.7471 40.4473 81.8496 39.9574 82 39.5244C82.1504 39.0915 82.3486 38.7223 82.5947 38.417C82.8454 38.1071 83.1484 37.8724 83.5039 37.7129C83.8594 37.5488 84.2695 37.4668 84.7344 37.4668C85.1992 37.4668 85.6117 37.5579 85.9717 37.7402C86.3317 37.918 86.6348 38.1732 86.8809 38.5059C87.127 38.8385 87.3115 39.2373 87.4346 39.7021C87.5622 40.1624 87.626 40.6751 87.626 41.2402ZM86.3545 41.3838V41.2402C86.3545 40.8711 86.3158 40.5247 86.2383 40.2012C86.1608 39.873 86.04 39.5859 85.876 39.3398C85.7165 39.0892 85.5114 38.8932 85.2607 38.752C85.0101 38.6061 84.7116 38.5332 84.3652 38.5332C84.0462 38.5332 83.7682 38.5879 83.5312 38.6973C83.2988 38.8066 83.1006 38.9548 82.9365 39.1416C82.7725 39.3239 82.638 39.5335 82.5332 39.7705C82.4329 40.0029 82.3577 40.2445 82.3076 40.4951V42.2656C82.3988 42.5846 82.5264 42.8854 82.6904 43.168C82.8545 43.446 83.0732 43.6715 83.3467 43.8447C83.6201 44.0133 83.9642 44.0977 84.3789 44.0977C84.7207 44.0977 85.0146 44.027 85.2607 43.8857C85.5114 43.7399 85.7165 43.5417 85.876 43.291C86.04 43.0404 86.1608 42.7533 86.2383 42.4297C86.3158 42.1016 86.3545 41.7529 86.3545 41.3838ZM88.9043 41.3838V41.2266C88.9043 40.6934 88.9818 40.1989 89.1367 39.7432C89.2917 39.2829 89.515 38.8841 89.8066 38.5469C90.0983 38.2051 90.4515 37.9408 90.8662 37.7539C91.2809 37.5625 91.7458 37.4668 92.2607 37.4668C92.7803 37.4668 93.2474 37.5625 93.6621 37.7539C94.0814 37.9408 94.4368 38.2051 94.7285 38.5469C95.0247 38.8841 95.2503 39.2829 95.4053 39.7432C95.5602 40.1989 95.6377 40.6934 95.6377 41.2266V41.3838C95.6377 41.917 95.5602 42.4115 95.4053 42.8672C95.2503 43.3229 95.0247 43.7217 94.7285 44.0635C94.4368 44.4007 94.0837 44.665 93.6689 44.8564C93.2588 45.0433 92.7939 45.1367 92.2744 45.1367C91.7549 45.1367 91.2878 45.0433 90.873 44.8564C90.4583 44.665 90.1029 44.4007 89.8066 44.0635C89.515 43.7217 89.2917 43.3229 89.1367 42.8672C88.9818 42.4115 88.9043 41.917 88.9043 41.3838ZM90.1689 41.2266V41.3838C90.1689 41.7529 90.2122 42.1016 90.2988 42.4297C90.3854 42.7533 90.5153 43.0404 90.6885 43.291C90.8662 43.5417 91.0872 43.7399 91.3516 43.8857C91.6159 44.027 91.9235 44.0977 92.2744 44.0977C92.6208 44.0977 92.9238 44.027 93.1836 43.8857C93.4479 43.7399 93.6667 43.5417 93.8398 43.291C94.013 43.0404 94.1429 42.7533 94.2295 42.4297C94.3206 42.1016 94.3662 41.7529 94.3662 41.3838V41.2266C94.3662 40.862 94.3206 40.5179 94.2295 40.1943C94.1429 39.8662 94.0107 39.5768 93.833 39.3262C93.6598 39.071 93.4411 38.8704 93.1768 38.7246C92.917 38.5788 92.6117 38.5059 92.2607 38.5059C91.9144 38.5059 91.609 38.5788 91.3447 38.7246C91.085 38.8704 90.8662 39.071 90.6885 39.3262C90.5153 39.5768 90.3854 39.8662 90.2988 40.1943C90.2122 40.5179 90.1689 40.862 90.1689 41.2266ZM101.476 43.3184L103.991 37.6035H105.208L101.913 45H101.038L97.7568 37.6035H98.9736L101.476 43.3184ZM98.6045 37.6035V45H97.3398V37.6035H98.6045ZM104.306 45V37.6035H105.577V45H104.306ZM107.279 41.3838V41.2266C107.279 40.6934 107.357 40.1989 107.512 39.7432C107.667 39.2829 107.89 38.8841 108.182 38.5469C108.473 38.2051 108.826 37.9408 109.241 37.7539C109.656 37.5625 110.121 37.4668 110.636 37.4668C111.155 37.4668 111.622 37.5625 112.037 37.7539C112.456 37.9408 112.812 38.2051 113.104 38.5469C113.4 38.8841 113.625 39.2829 113.78 39.7432C113.935 40.1989 114.013 40.6934 114.013 41.2266V41.3838C114.013 41.917 113.935 42.4115 113.78 42.8672C113.625 43.3229 113.4 43.7217 113.104 44.0635C112.812 44.4007 112.459 44.665 112.044 44.8564C111.634 45.0433 111.169 45.1367 110.649 45.1367C110.13 45.1367 109.663 45.0433 109.248 44.8564C108.833 44.665 108.478 44.4007 108.182 44.0635C107.89 43.7217 107.667 43.3229 107.512 42.8672C107.357 42.4115 107.279 41.917 107.279 41.3838ZM108.544 41.2266V41.3838C108.544 41.7529 108.587 42.1016 108.674 42.4297C108.76 42.7533 108.89 43.0404 109.063 43.291C109.241 43.5417 109.462 43.7399 109.727 43.8857C109.991 44.027 110.299 44.0977 110.649 44.0977C110.996 44.0977 111.299 44.027 111.559 43.8857C111.823 43.7399 112.042 43.5417 112.215 43.291C112.388 43.0404 112.518 42.7533 112.604 42.4297C112.696 42.1016 112.741 41.7529 112.741 41.3838V41.2266C112.741 40.862 112.696 40.5179 112.604 40.1943C112.518 39.8662 112.386 39.5768 112.208 39.3262C112.035 39.071 111.816 38.8704 111.552 38.7246C111.292 38.5788 110.987 38.5059 110.636 38.5059C110.289 38.5059 109.984 38.5788 109.72 38.7246C109.46 38.8704 109.241 39.071 109.063 39.3262C108.89 39.5768 108.76 39.8662 108.674 40.1943C108.587 40.5179 108.544 40.862 108.544 41.2266ZM116.973 37.6035V45H115.708V37.6035H116.973ZM121.826 37.6035L118.319 41.8418H116.549L116.357 40.7344H117.807L120.288 37.6035H121.826ZM120.466 45L117.745 41.6504L118.559 40.7344L122.072 45H120.466ZM122.688 41.3838V41.2266C122.688 40.6934 122.765 40.1989 122.92 39.7432C123.075 39.2829 123.298 38.8841 123.59 38.5469C123.882 38.2051 124.235 37.9408 124.649 37.7539C125.064 37.5625 125.529 37.4668 126.044 37.4668C126.563 37.4668 127.031 37.5625 127.445 37.7539C127.865 37.9408 128.22 38.2051 128.512 38.5469C128.808 38.8841 129.034 39.2829 129.188 39.7432C129.343 40.1989 129.421 40.6934 129.421 41.2266V41.3838C129.421 41.917 129.343 42.4115 129.188 42.8672C129.034 43.3229 128.808 43.7217 128.512 44.0635C128.22 44.4007 127.867 44.665 127.452 44.8564C127.042 45.0433 126.577 45.1367 126.058 45.1367C125.538 45.1367 125.071 45.0433 124.656 44.8564C124.242 44.665 123.886 44.4007 123.59 44.0635C123.298 43.7217 123.075 43.3229 122.92 42.8672C122.765 42.4115 122.688 41.917 122.688 41.3838ZM123.952 41.2266V41.3838C123.952 41.7529 123.995 42.1016 124.082 42.4297C124.169 42.7533 124.299 43.0404 124.472 43.291C124.649 43.5417 124.87 43.7399 125.135 43.8857C125.399 44.027 125.707 44.0977 126.058 44.0977C126.404 44.0977 126.707 44.027 126.967 43.8857C127.231 43.7399 127.45 43.5417 127.623 43.291C127.796 43.0404 127.926 42.7533 128.013 42.4297C128.104 42.1016 128.149 41.7529 128.149 41.3838V41.2266C128.149 40.862 128.104 40.5179 128.013 40.1943C127.926 39.8662 127.794 39.5768 127.616 39.3262C127.443 39.071 127.224 38.8704 126.96 38.7246C126.7 38.5788 126.395 38.5059 126.044 38.5059C125.698 38.5059 125.392 38.5788 125.128 38.7246C124.868 38.8704 124.649 39.071 124.472 39.3262C124.299 39.5768 124.169 39.8662 124.082 40.1943C123.995 40.5179 123.952 40.862 123.952 41.2266ZM131.848 37.6035H133.112L133.003 40.3721C132.976 41.0739 132.896 41.68 132.764 42.1904C132.632 42.7008 132.463 43.1361 132.258 43.4961C132.053 43.8516 131.823 44.1501 131.567 44.3916C131.317 44.6331 131.057 44.8359 130.788 45H130.159L130.193 43.9678L130.453 43.9609C130.604 43.7832 130.749 43.6009 130.891 43.4141C131.032 43.2227 131.162 42.9971 131.28 42.7373C131.399 42.473 131.497 42.1517 131.574 41.7734C131.656 41.3906 131.709 40.9235 131.731 40.3721L131.848 37.6035ZM132.162 37.6035H136.612V45H135.348V38.7725H132.162V37.6035ZM129.872 43.9609H137.562V47.1807H136.298V45H131.137V47.1807H129.865L129.872 43.9609Z" fill="black" fill-opacity="0.85"/>
<path d="M141.519 44.3301C141.519 44.1159 141.585 43.9359 141.717 43.79C141.854 43.6396 142.049 43.5645 142.305 43.5645C142.56 43.5645 142.754 43.6396 142.886 43.79C143.022 43.9359 143.091 44.1159 143.091 44.3301C143.091 44.5397 143.022 44.7174 142.886 44.8633C142.754 45.0091 142.56 45.082 142.305 45.082C142.049 45.082 141.854 45.0091 141.717 44.8633C141.585 44.7174 141.519 44.5397 141.519 44.3301ZM141.525 38.2939C141.525 38.0798 141.591 37.8997 141.724 37.7539C141.86 37.6035 142.056 37.5283 142.312 37.5283C142.567 37.5283 142.76 37.6035 142.893 37.7539C143.029 37.8997 143.098 38.0798 143.098 38.2939C143.098 38.5036 143.029 38.6813 142.893 38.8271C142.76 38.973 142.567 39.0459 142.312 39.0459C142.056 39.0459 141.86 38.973 141.724 38.8271C141.591 38.6813 141.525 38.5036 141.525 38.2939Z" fill="black" fill-opacity="0.85"/>
</g>
<g clip-path="url(#clip4_170660_158012)">
<rect x="152" y="24" width="396" height="32" rx="2" fill="white"/>
<rect x="152.5" y="24.5" width="395" height="31" rx="1.5" fill="white"/>
<path d="M171.656 39.3262V40.3994H166.27V39.3262H171.656ZM166.475 35.0469V45H165.155V35.0469H166.475ZM172.805 35.0469V45H171.492V35.0469H172.805ZM181.473 43.9268V45H176.202V43.9268H181.473ZM176.469 35.0469V45H175.149V35.0469H176.469ZM180.775 39.3262V40.3994H176.202V39.3262H180.775ZM181.404 35.0469V36.127H176.202V35.0469H181.404ZM186.791 35.9287L183.496 45H182.149L185.943 35.0469H186.812L186.791 35.9287ZM189.553 45L186.251 35.9287L186.23 35.0469H187.099L190.906 45H189.553ZM189.382 41.3154V42.3955H183.79V41.3154H189.382ZM194.851 43.4893L197.783 35.0469H199.212L195.527 45H194.509L194.851 43.4893ZM192.109 35.0469L195.015 43.4893L195.377 45H194.358L190.681 35.0469H192.109ZM206.875 43.9268V45H201.604V43.9268H206.875ZM201.871 35.0469V45H200.552V35.0469H201.871ZM206.178 39.3262V40.3994H201.604V39.3262H206.178ZM206.807 35.0469V36.127H201.604V35.0469H206.807ZM216.165 35.0469V45H214.839L209.828 37.3232V45H208.509V35.0469H209.828L214.859 42.7441V35.0469H216.165ZM223.644 45V46.0391H217.375V45H223.644ZM232.175 40.0439V43.6875C232.052 43.8698 231.856 44.0749 231.587 44.3027C231.318 44.526 230.947 44.722 230.473 44.8906C230.003 45.0547 229.397 45.1367 228.654 45.1367C228.048 45.1367 227.49 45.0319 226.979 44.8223C226.474 44.6081 226.034 44.2982 225.66 43.8926C225.291 43.4824 225.004 42.9857 224.799 42.4023C224.598 41.8145 224.498 41.1491 224.498 40.4062V39.6338C224.498 38.891 224.585 38.2279 224.758 37.6445C224.936 37.0612 225.195 36.5667 225.537 36.1611C225.879 35.751 226.298 35.4411 226.795 35.2314C227.292 35.0173 227.861 34.9102 228.504 34.9102C229.265 34.9102 229.901 35.0423 230.411 35.3066C230.926 35.5664 231.327 35.9264 231.614 36.3867C231.906 36.847 232.093 37.3711 232.175 37.959H230.855C230.796 37.599 230.678 37.2708 230.5 36.9746C230.327 36.6784 230.078 36.4414 229.755 36.2637C229.431 36.0814 229.014 35.9902 228.504 35.9902C228.044 35.9902 227.645 36.0745 227.308 36.2432C226.97 36.4118 226.692 36.6533 226.474 36.9678C226.255 37.2822 226.091 37.6628 225.981 38.1094C225.877 38.556 225.824 39.0596 225.824 39.6201V40.4062C225.824 40.9805 225.89 41.4932 226.022 41.9443C226.159 42.3955 226.353 42.7806 226.604 43.0996C226.854 43.4141 227.153 43.6533 227.499 43.8174C227.85 43.9814 228.237 44.0635 228.661 44.0635C229.131 44.0635 229.511 44.0247 229.803 43.9473C230.094 43.8652 230.322 43.7695 230.486 43.6602C230.65 43.5462 230.776 43.4391 230.862 43.3389V41.1104H228.559V40.0439H232.175ZM238.047 35.9287L234.752 45H233.405L237.199 35.0469H238.067L238.047 35.9287ZM240.809 45L237.507 35.9287L237.486 35.0469H238.354L242.162 45H240.809ZM240.638 41.3154V42.3955H235.046V41.3154H240.638ZM246.284 35.0469V45H244.985V35.0469H246.284ZM249.483 35.0469V36.127H241.793V35.0469H249.483ZM257.283 43.9268V45H252.013V43.9268H257.283ZM252.279 35.0469V45H250.96V35.0469H252.279ZM256.586 39.3262V40.3994H252.013V39.3262H256.586ZM257.215 35.0469V36.127H252.013V35.0469H257.215ZM264.222 42.4844C264.222 42.252 264.185 42.0469 264.112 41.8691C264.044 41.6868 263.921 41.5228 263.743 41.377C263.57 41.2311 263.328 41.0921 263.019 40.96C262.713 40.8278 262.326 40.6934 261.856 40.5566C261.364 40.4108 260.92 40.249 260.523 40.0713C260.127 39.889 259.787 39.6816 259.505 39.4492C259.222 39.2168 259.006 38.9502 258.855 38.6494C258.705 38.3486 258.63 38.0046 258.63 37.6172C258.63 37.2298 258.71 36.8721 258.869 36.5439C259.029 36.2158 259.257 35.931 259.553 35.6895C259.854 35.4434 260.211 35.252 260.626 35.1152C261.041 34.9785 261.503 34.9102 262.014 34.9102C262.761 34.9102 263.395 35.0537 263.914 35.3408C264.438 35.6234 264.837 35.9948 265.11 36.4551C265.384 36.9108 265.521 37.3984 265.521 37.918H264.208C264.208 37.5443 264.128 37.2139 263.969 36.9268C263.809 36.6351 263.568 36.4072 263.244 36.2432C262.921 36.0745 262.51 35.9902 262.014 35.9902C261.544 35.9902 261.157 36.0609 260.852 36.2021C260.546 36.3434 260.318 36.5348 260.168 36.7764C260.022 37.0179 259.949 37.2936 259.949 37.6035C259.949 37.8132 259.993 38.0046 260.079 38.1777C260.17 38.3464 260.309 38.5036 260.496 38.6494C260.688 38.7952 260.929 38.9297 261.221 39.0527C261.517 39.1758 261.87 39.2943 262.28 39.4082C262.845 39.5677 263.333 39.7454 263.743 39.9414C264.153 40.1374 264.491 40.3584 264.755 40.6045C265.024 40.846 265.222 41.1217 265.35 41.4316C265.482 41.737 265.548 42.0833 265.548 42.4707C265.548 42.8763 265.466 43.2432 265.302 43.5713C265.138 43.8994 264.903 44.1797 264.598 44.4121C264.292 44.6445 263.925 44.8245 263.497 44.9521C263.073 45.0752 262.599 45.1367 262.075 45.1367C261.615 45.1367 261.161 45.0729 260.715 44.9453C260.273 44.8177 259.869 44.6263 259.505 44.3711C259.145 44.1159 258.855 43.8014 258.637 43.4277C258.423 43.0495 258.315 42.612 258.315 42.1152H259.628C259.628 42.457 259.694 42.751 259.826 42.9971C259.958 43.2386 260.138 43.4391 260.366 43.5986C260.599 43.7581 260.861 43.8766 261.152 43.9541C261.449 44.027 261.756 44.0635 262.075 44.0635C262.535 44.0635 262.925 43.9997 263.244 43.8721C263.563 43.7445 263.805 43.5622 263.969 43.3252C264.137 43.0882 264.222 42.8079 264.222 42.4844Z" fill="black" fill-opacity="0.85"/>
<rect x="152.5" y="24.5" width="395" height="31" rx="1.5" stroke="#D9D9D9"/>
</g>
<rect x="152.5" y="24.5" width="395" height="31" rx="1.5" stroke="#D9D9D9"/>
<defs>
<clipPath id="clip0_170660_158012">
<rect width="113" height="22" fill="white" transform="translate(31 141)"/>
</clipPath>
<clipPath id="clip1_170660_158012">
<rect width="51" height="22" fill="white" transform="matrix(-1 0 0 -1 144 106)"/>
</clipPath>
<clipPath id="clip2_170660_158012">
<rect width="51" height="22" fill="white" transform="translate(93 84)"/>
</clipPath>
<clipPath id="clip3_170660_158012">
<rect width="74" height="22" fill="white" transform="translate(70 29)"/>
</clipPath>
<clipPath id="clip4_170660_158012">
<rect x="152" y="24" width="396" height="32" rx="2" fill="white"/>
</clipPath>
</defs>
</svg>
